HIERARCHY
ROOT Hips
{
	OFFSET 0.000000 0.000000 0.000000
	CHANNELS 6 Xposition Yposition Zposition Zrotation Yrotation Xrotation 
	JOINT LHipJoint
	{
		OFFSET 0.000000 0.000000 0.000000
		CHANNELS 3 Zrotation Yrotation Xrotation
		JOINT LeftUpLeg
		{
			OFFSET 1.363060 -1.794630 0.839290
			CHANNELS 3 Zrotation Yrotation Xrotation
			JOINT LeftLeg
			{
				OFFSET 2.448110 -6.726130 0.000000
				CHANNELS 3 Zrotation Yrotation Xrotation
				JOINT LeftFoot
				{
					OFFSET 2.562200 -7.039590 0.000000
					CHANNELS 3 Zrotation Yrotation Xrotation
					JOINT LeftToeBase
					{
						OFFSET 0.157640 -0.433110 2.322550
						CHANNELS 3 Zrotation Yrotation Xrotation
						End Site
						{
							OFFSET 0.000000 0.000000 0.000000
						}
					}
				}
			}
		}
	}
	JOINT RHipJoint
	{
		OFFSET 0.000000 0.000000 0.000000
		CHANNELS 3 Zrotation Yrotation Xrotation
		JOINT RightUpLeg
		{
			OFFSET -1.305520 -1.794630 0.839290
			CHANNELS 3 Zrotation Yrotation Xrotation
			JOINT RightLeg
			{
				OFFSET -2.542530 -6.985550 0.000000
				CHANNELS 3 Zrotation Yrotation Xrotation
				JOINT RightFoot
				{
					OFFSET -2.568260 -7.056230 0.000000
					CHANNELS 3 Zrotation Yrotation Xrotation
					JOINT RightToeBase
					{
						OFFSET -0.164730 -0.452590 2.363150
						CHANNELS 3 Zrotation Yrotation Xrotation
						End Site
						{
							OFFSET 0.000000 0.000000 0.000000
						}
					}
				}
			}
		}
	}
	JOINT LowerBack
	{
		OFFSET 0.000000 0.000000 0.000000
		CHANNELS 3 Zrotation Yrotation Xrotation
		JOINT Spine
		{
			OFFSET 0.028270 2.035590 -0.193380
			CHANNELS 3 Zrotation Yrotation Xrotation
			JOINT Spine1
			{
				OFFSET 0.056720 2.048850 -0.042750
				CHANNELS 3 Zrotation Yrotation Xrotation
				JOINT Neck
				{
					OFFSET 0.000000 0.000000 0.000000
					CHANNELS 3 Zrotation Yrotation Xrotation
					JOINT Neck1
					{
						OFFSET -0.054170 1.746240 0.172020
						CHANNELS 3 Zrotation Yrotation Xrotation
						JOINT Head
						{
							OFFSET 0.104070 1.761360 -0.123970
							CHANNELS 3 Zrotation Yrotation Xrotation
							End Site
							{
								OFFSET 0.000000 0.000000 0.000000
							}
						}
					}
				}
				JOINT LeftShoulder
				{
					OFFSET 0.000000 0.000000 0.000000
					CHANNELS 3 Zrotation Yrotation Xrotation
					JOINT LeftArm
					{
						OFFSET 3.362410 1.200890 -0.311210
						CHANNELS 3 Zrotation Yrotation Xrotation
						JOINT LeftForeArm
						{
							OFFSET 4.983000 -0.000000 -0.000000
							CHANNELS 3 Zrotation Yrotation Xrotation
							JOINT LeftHand
							{
								OFFSET 3.483560 -0.000000 -0.000000
								CHANNELS 3 Zrotation Yrotation Xrotation
								JOINT LeftFingerBase
								{
									OFFSET 0.000000 0.000000 0.000000
									CHANNELS 3 Zrotation Yrotation Xrotation
									JOINT LeftHandIndex1
									{
										OFFSET 0.715260 -0.000000 -0.000000
										CHANNELS 3 Zrotation Yrotation Xrotation
										End Site
										{
											OFFSET 0.000000 0.000000 0.000000
										}
									}
								}
								JOINT LThumb
								{
									OFFSET 0.000000 0.000000 0.000000
									CHANNELS 3 Zrotation Yrotation Xrotation
									End Site
									{
										OFFSET 0.000000 0.000000 0.000000
									}
								}
							}
						}
					}
				}
				JOINT RightShoulder
				{
					OFFSET 0.000000 0.000000 0.000000
					CHANNELS 3 Zrotation Yrotation Xrotation
					JOINT RightArm
					{
						OFFSET -3.136600 1.374050 -0.404650
						CHANNELS 3 Zrotation Yrotation Xrotation
						JOINT RightForeArm
						{
							OFFSET -5.241900 -0.000000 -0.000000
							CHANNELS 3 Zrotation Yrotation Xrotation
							JOINT RightHand
							{
								OFFSET -3.444170 -0.000000 -0.000000
								CHANNELS 3 Zrotation Yrotation Xrotation
								JOINT RightFingerBase
								{
									OFFSET 0.000000 0.000000 0.000000
									CHANNELS 3 Zrotation Yrotation Xrotation
									JOINT RightHandIndex1
									{
										OFFSET -0.622530 -0.000000 -0.000000
										CHANNELS 3 Zrotation Yrotation Xrotation
										End Site
										{
											OFFSET 0.000000 0.000000 0.000000
										}
									}
								}
								JOINT RThumb
								{
									OFFSET 0.000000 0.000000 0.000000
									CHANNELS 3 Zrotation Yrotation Xrotation
									End Site
									{
										OFFSET 0.000000 0.000000 0.000000
									}
								}
							}
						}
					}
				}
			}
		}
	}
}
MOTION
Frames: 11
Frame Time: 0.008333
9.966206 17.613522 -7.723812 2.639827 5.569445 7.428259 -2.954956 1.604172 5.288235 -17.901563 0.101257 7.315518 -1.068794 6.891215 21.853648 -0.093410 8.928757 29.234708 0.278586 3.390476 9.368291 -0.061128 3.490768 -5.497451 10.897200 5.865000 -35.360944 2.206821 -12.060761 25.543421 -1.778976 -3.790754 24.657170 -0.059904 -1.572508 4.325727 0.889571 -1.575307 2.899017 1.538769 -1.680282 -3.760858 0.960383 -1.657890 -1.318898 -4.251079 -0.749306 -9.919476 5.291113 -0.954515 9.691274 1.146367 -0.326015 4.873516 3.261263 -10.354252 0.648851 -80.414980 -17.431520 32.250122 36.688161 -39.059507 -17.615992 -0.537271 0.484056 -25.585906 30.909930 -14.067430 -8.794068 -7.125000 0.000000 0.000000 2.435459 12.820916 -1.836185 -3.517441 8.934206 1.380882 92.956598 -18.428538 -60.161370 -2.702652 5.026658 -1.364224 2.224269 -0.837330 56.729319 -20.123924 -32.476629 12.598597 7.125000 0.000000 0.000000 13.563219 -65.036137 -6.627645
9.974750 17.619300 -7.591156 2.658523 5.429184 7.350846 -2.933480 1.517274 5.141447 -17.974209 0.183122 6.686529 -0.592680 7.622951 23.578059 -0.390203 10.676406 30.066821 0.275595 3.364273 9.295747 -0.092664 3.470146 -5.423145 10.980711 5.934524 -35.289698 2.073541 -12.266241 26.209106 -1.847194 -3.355680 24.378304 -0.063241 -1.601901 4.407127 0.928914 -1.527568 3.012859 1.538091 -1.621424 -3.750584 0.974036 -1.614974 -1.321084 -4.327431 -0.750036 -9.942060 5.300795 -0.943591 9.676365 1.171527 -0.323643 4.874610 3.250694 -10.344964 0.636232 -80.606508 -17.138036 32.264692 36.440238 -38.934222 -17.418499 -0.549666 0.473148 -25.878464 30.707731 -13.937458 -8.651826 -7.125000 0.000000 0.000000 2.324906 13.007324 -1.743628 -3.507349 8.951868 1.380005 92.789221 -18.077770 -59.780119 -2.668273 4.988873 -1.371738 2.239259 -0.843165 56.510985 -20.302001 -32.565959 12.745381 7.125000 0.000000 0.000000 13.399730 -65.171678 -6.588979
9.981854 17.626454 -7.460441 2.725521 5.289987 7.267350 -2.897099 1.422336 4.979941 -18.125291 0.237283 6.077467 -0.095990 8.308216 25.247119 -0.616809 12.182987 30.770577 0.224692 3.028589 8.360012 -0.113637 3.454655 -5.340830 11.039383 5.940301 -35.189643 1.955216 -12.434271 26.814034 -1.979314 -2.811426 24.347404 -0.089969 -1.906202 5.247279 0.926233 -1.449799 3.133966 1.517540 -1.519198 -3.739837 0.892068 -1.550378 -1.330575 -4.287805 -0.797329 -9.959701 5.284472 -1.008917 9.696999 1.155679 -0.355071 4.899949 3.238369 -10.342034 0.623839 -80.736894 -16.907794 32.326925 36.026501 -38.691175 -17.090885 -0.552306 0.472973 -26.152976 30.345973 -13.964530 -8.545677 -7.125000 0.000000 0.000000 2.079343 13.034007 -1.558146 -3.518917 8.982302 1.374288 92.833790 -17.740680 -59.107024 -2.650480 5.037030 -1.384010 2.247882 -0.832878 55.888157 -20.437969 -32.606330 12.844501 7.125000 0.000000 0.000000 13.245050 -65.238430 -6.532032
9.988397 17.635286 -7.329308 2.774263 5.147669 7.175705 -2.859047 1.330990 4.818658 -18.254911 0.295002 5.473855 0.406041 8.982621 26.905238 -0.839195 13.669561 31.439003 0.175308 2.689282 7.415146 -0.128467 3.435912 -5.254551 11.117537 5.953463 -35.069311 1.839257 -12.595255 27.407385 -2.105937 -2.278797 24.306329 -0.121631 -2.233767 6.152769 0.935654 -1.370294 3.257846 1.498585 -1.414091 -3.728085 0.807443 -1.484270 -1.340862 -4.231387 -0.840741 -9.968252 5.263355 -1.071888 9.711336 1.132312 -0.384946 4.918628 3.228511 -10.338273 0.612159 -80.875003 -16.659533 32.393391 35.631193 -38.461344 -16.777394 -0.554636 0.471088 -26.416429 29.983732 -13.970699 -8.427410 -7.125000 0.000000 0.000000 1.836244 13.086256 -1.373890 -3.528861 9.011962 1.368726 92.884911 -17.403268 -58.388300 -2.633268 5.092726 -1.396384 2.256224 -0.821267 55.217626 -20.571573 -32.631023 12.936706 7.125000 0.000000 0.000000 13.078990 -65.288338 -6.464279
9.991746 17.653655 -7.195802 2.719168 4.987602 7.037712 -2.811491 1.260073 4.658649 -18.262464 0.372959 4.901235 0.938450 9.595256 28.501135 -1.037580 15.042344 31.906482 0.134567 2.329377 6.418344 -0.108356 3.398677 -5.145735 11.306494 6.008625 -34.833653 1.736754 -12.716161 27.934893 -2.201298 -1.812283 24.207391 -0.181354 -2.693643 7.429874 1.013906 -1.280925 3.397499 1.488707 -1.292590 -3.710617 0.707709 -1.409566 -1.355672 -4.079464 -0.862080 -9.925112 5.214969 -1.121466 9.689855 1.066187 -0.405988 4.899422 3.232679 -10.329788 0.604534 -81.057039 -16.308795 32.483926 35.340699 -38.306679 -16.544219 -0.555201 0.459473 -26.616989 29.618750 -13.857978 -8.240227 -7.125000 0.000000 0.000000 1.607156 13.283915 -1.196601 -3.529568 9.037217 1.364053 92.973302 -17.064035 -57.410063 -2.619367 5.191302 -1.409334 2.262973 -0.802125 54.275786 -20.691731 -32.566545 12.989579 7.125000 0.000000 0.000000 12.848201 -65.242449 -6.335074
9.995095 17.672024 -7.062296 2.664073 4.827535 6.899719 -2.763936 1.189157 4.498639 -18.270018 0.450916 4.328616 1.470858 10.207892 30.097032 -1.235965 16.415126 32.373962 0.093827 1.969472 5.421543 -0.088245 3.361442 -5.036918 11.495450 6.063788 -34.597994 1.634252 -12.837067 28.462402 -2.296659 -1.345769 24.108452 -0.241077 -3.153519 8.706980 1.092157 -1.191555 3.537151 1.478829 -1.171089 -3.693148 0.607976 -1.334863 -1.370482 -3.927541 -0.883419 -9.881973 5.166584 -1.171043 9.668375 1.000062 -0.427030 4.880215 3.236847 -10.321303 0.596909 -81.239076 -15.958057 32.574462 35.050206 -38.152013 -16.311045 -0.555766 0.447858 -26.817548 29.253767 -13.745258 -8.053044 -7.125000 0.000000 0.000000 1.378069 13.481574 -1.019312 -3.530276 9.062471 1.359379 93.061693 -16.724801 -56.431826 -2.605465 5.289879 -1.422285 2.269722 -0.782984 53.333946 -20.811889 -32.502068 13.042453 7.125000 0.000000 0.000000 12.617412 -65.196560 -6.205868
9.997933 17.698712 -6.927302 2.565268 4.686322 6.700360 -2.707741 1.140892 4.342940 -18.206185 0.641420 3.795575 2.067271 10.782327 31.662201 -1.549626 18.144728 32.501124 0.090728 1.942644 5.347172 -0.044657 3.302869 -4.912420 11.755780 6.096640 -34.257616 1.539503 -12.911453 28.881392 -2.299718 -1.120447 23.734478 -0.220554 -3.015636 8.322842 1.185913 -1.113968 3.734548 1.482732 -1.062818 -3.671052 0.556415 -1.265859 -1.414144 -3.792834 -0.905283 -9.758280 5.088743 -1.221794 9.580998 0.914870 -0.452459 4.800610 3.246937 -10.317079 0.594387 -81.482949 -15.600685 32.666831 34.720387 -37.970874 -16.053339 -0.563807 0.438536 -26.855408 29.025716 -13.528214 -7.864221 -7.125000 0.000000 0.000000 1.254526 13.766080 -0.921038 -3.516642 9.086247 1.358659 93.108447 -16.401112 -54.989528 -2.598522 5.460061 -1.444700 2.290953 -0.741809 51.950742 -20.911021 -32.547245 13.122758 7.125000 0.000000 0.000000 12.509144 -65.260398 -6.170069
10.000723 17.726165 -6.792172 2.462449 4.546842 6.495366 -2.650753 1.094707 4.187638 -18.135796 0.842261 3.266168 2.669563 11.353253 33.224548 -1.873873 19.907098 32.597032 0.091086 1.946405 5.357514 0.001086 3.242336 -4.786482 12.022664 6.127443 -33.907621 1.445467 -12.981566 29.290416 -2.294301 -0.917276 23.335245 -0.192663 -2.822857 7.786141 1.281094 -1.037463 3.937248 1.487900 -0.955762 -3.648531 0.509279 -1.197380 -1.460454 -3.659709 -0.927195 -9.627190 5.008196 -1.272652 9.487570 0.827927 -0.478292 4.715458 3.257571 -10.313247 0.592334 -81.732501 -15.242703 32.759369 34.386957 -37.787304 -15.793380 -0.572533 0.429425 -26.878325 28.810240 -13.301590 -7.675248 -7.125000 0.000000 0.000000 1.140677 14.058562 -0.830021 -3.501691 9.109887 1.358302 93.151378 -16.078851 -53.504612 -2.592217 5.636820 -1.467985 2.313514 -0.698611 50.527004 -21.008223 -32.602493 13.205582 7.125000 0.000000 0.000000 12.412128 -65.334313 -6.142849
10.004657 17.752821 -6.658877 2.390835 4.436045 6.309660 -2.592792 1.043531 4.018730 -18.110668 0.979183 2.722582 3.327571 11.913584 34.772475 -2.453381 22.376182 32.167960 0.221348 2.760710 7.632597 0.057422 3.184243 -4.657377 12.247616 6.124400 -33.529348 1.377354 -13.004522 29.573038 -2.289380 -0.748168 22.903804 -0.145987 -2.401029 6.617974 1.360848 -0.953231 4.116669 1.484279 -0.838426 -3.623539 0.447059 -1.123204 -1.493532 -3.629764 -0.953998 -9.477058 5.024940 -1.324997 9.378768 0.830233 -0.503910 4.614881 3.253365 -10.312511 0.590766 -82.028280 -14.917922 32.836819 33.961769 -37.534724 -15.475077 -0.580486 0.433696 -26.748828 28.698539 -13.204293 -7.593941 -7.125000 0.000000 0.000000 1.078935 14.176057 -0.782010 -3.507012 9.133725 1.361057 93.225752 -15.705304 -52.138131 -2.593465 5.803961 -1.491676 2.332423 -0.651259 49.195117 -20.972239 -32.722701 13.225974 7.125000 0.000000 0.000000 12.546237 -65.438558 -6.241226
10.009123 17.779106 -6.526437 2.333754 4.338607 6.132938 -2.534376 0.990030 3.843485 -18.106619 1.086335 2.172392 4.011531 12.468979 36.313686 -3.151776 25.174420 31.494376 0.412112 3.952529 10.962490 0.118691 3.127287 -4.526798 12.453038 6.105592 -33.137903 1.321316 -13.005513 29.796788 -2.284689 -0.594925 22.457361 -0.090562 -1.872521 5.155700 1.433418 -0.865399 4.285249 1.476565 -0.716301 -3.597397 0.377814 -1.046375 -1.520446 -3.647876 -0.983077 -9.318057 5.086997 -1.378034 9.262804 0.874108 -0.529429 4.507120 3.242248 -10.313217 0.589425 -82.345588 -14.608603 32.907243 33.493845 -37.250003 -15.129600 -0.588079 0.444199 -26.548344 28.635172 -13.167232 -7.562782 -7.125000 0.000000 0.000000 1.041462 14.212052 -0.754029 -3.521775 9.157654 1.365262 93.314772 -15.307870 -50.826812 -2.598230 5.966624 -1.515556 2.349630 -0.601971 47.906009 -20.874225 -32.873164 13.217289 7.125000 0.000000 0.000000 12.787995 -65.556930 -6.398100
10.012382 17.804799 -6.393791 2.245126 4.254210 5.991646 -2.462709 0.922018 3.663901 -18.085870 1.095389 1.585412 4.612384 12.965292 37.879644 -3.967300 27.420858 29.994039 0.556503 4.767277 13.248113 0.184306 3.075689 -4.393602 12.677228 6.100780 -32.731688 1.285930 -12.979192 29.954859 -2.298681 -0.407493 22.070395 -0.055341 -1.512374 4.160031 1.520888 -0.787121 4.414678 1.474819 -0.608792 -3.577197 0.329724 -0.976476 -1.533786 -3.697164 -0.998474 -9.229460 5.187916 -1.406497 9.210318 0.949272 -0.540568 4.456697 3.230318 -10.309727 0.579396 -82.696697 -14.277907 32.915646 33.012603 -36.952158 -14.780642 -0.590988 0.458446 -26.279558 28.552854 -13.184381 -7.553413 -7.125000 0.000000 0.000000 0.982440 14.189082 -0.711587 -3.536815 9.183186 1.363182 93.370763 -14.905398 -49.448381 -2.601228 6.131557 -1.537632 2.365060 -0.551964 46.584277 -20.742185 -32.971174 13.169862 7.125000 0.000000 0.000000 13.025815 -65.614227 -6.535412
